<mxfile host="app.diagrams.net" agent="Mozilla/5.0 (Windows NT 10.0; Win64; x64) AppleWebKit/537.36 (KHTML, like Gecko) Chrome/132.0.0.0 Safari/537.36 OPR/117.0.0.0" version="26.1.1">
  <diagram name="Page-1" id="b6k3g_qikdSeUmc0pjEk">
    <mxGraphModel dx="2048" dy="783" grid="1" gridSize="10" guides="1" tooltips="1" connect="1" arrows="1" fold="1" page="1" pageScale="1" pageWidth="827" pageHeight="1169" math="0" shadow="0">
      <root>
        <mxCell id="0" />
        <mxCell id="1" parent="0" />
        <mxCell id="fw6u8yXrWwLpEbGzCbdU-9" value="Korisnik" style="rounded=0;whiteSpace=wrap;html=1;" parent="1" vertex="1">
          <mxGeometry x="-80" y="237.5" width="120" height="90" as="geometry" />
        </mxCell>
        <mxCell id="fw6u8yXrWwLpEbGzCbdU-10" value="Stvaratelj oglasa" style="rounded=0;whiteSpace=wrap;html=1;" parent="1" vertex="1">
          <mxGeometry x="660" y="235" width="120" height="100" as="geometry" />
        </mxCell>
        <mxCell id="fw6u8yXrWwLpEbGzCbdU-11" value="Administrator" style="rounded=0;whiteSpace=wrap;html=1;" parent="1" vertex="1">
          <mxGeometry x="390" y="700" width="120" height="110" as="geometry" />
        </mxCell>
        <mxCell id="fw6u8yXrWwLpEbGzCbdU-12" value="Prijava/Registracija Korisnika" style="rounded=1;whiteSpace=wrap;html=1;" parent="1" vertex="1">
          <mxGeometry x="660" y="20" width="120" height="110" as="geometry" />
        </mxCell>
        <mxCell id="fw6u8yXrWwLpEbGzCbdU-13" value="" style="endArrow=none;html=1;rounded=0;exitX=0;exitY=0.25;exitDx=0;exitDy=0;entryX=1;entryY=0.25;entryDx=0;entryDy=0;" parent="1" source="fw6u8yXrWwLpEbGzCbdU-12" target="fw6u8yXrWwLpEbGzCbdU-12" edge="1">
          <mxGeometry width="50" height="50" relative="1" as="geometry">
            <mxPoint x="380" y="220" as="sourcePoint" />
            <mxPoint x="430" y="170" as="targetPoint" />
          </mxGeometry>
        </mxCell>
        <mxCell id="fw6u8yXrWwLpEbGzCbdU-16" value="P1" style="text;html=1;align=center;verticalAlign=middle;whiteSpace=wrap;rounded=0;" parent="1" vertex="1">
          <mxGeometry x="690" y="20" width="60" height="30" as="geometry" />
        </mxCell>
        <mxCell id="fw6u8yXrWwLpEbGzCbdU-21" value="Korisnički račun" style="text;html=1;align=center;verticalAlign=middle;whiteSpace=wrap;rounded=0;" parent="1" vertex="1">
          <mxGeometry x="620" y="170" width="60" height="30" as="geometry" />
        </mxCell>
        <mxCell id="fw6u8yXrWwLpEbGzCbdU-25" value="Podatci za prijavu/registraciju" style="text;html=1;align=center;verticalAlign=middle;whiteSpace=wrap;rounded=0;" parent="1" vertex="1">
          <mxGeometry x="770" y="150" width="60" height="50" as="geometry" />
        </mxCell>
        <mxCell id="fw6u8yXrWwLpEbGzCbdU-27" value="Objaviti oglas" style="rounded=1;whiteSpace=wrap;html=1;" parent="1" vertex="1">
          <mxGeometry x="390" y="237.5" width="120" height="95" as="geometry" />
        </mxCell>
        <mxCell id="fw6u8yXrWwLpEbGzCbdU-28" value="" style="endArrow=none;html=1;rounded=0;exitX=0;exitY=0.25;exitDx=0;exitDy=0;entryX=1;entryY=0.25;entryDx=0;entryDy=0;" parent="1" source="fw6u8yXrWwLpEbGzCbdU-27" target="fw6u8yXrWwLpEbGzCbdU-27" edge="1">
          <mxGeometry width="50" height="50" relative="1" as="geometry">
            <mxPoint x="380" y="420" as="sourcePoint" />
            <mxPoint x="430" y="370" as="targetPoint" />
          </mxGeometry>
        </mxCell>
        <mxCell id="fw6u8yXrWwLpEbGzCbdU-29" value="" style="endArrow=classic;html=1;rounded=0;exitX=0;exitY=0.5;exitDx=0;exitDy=0;entryX=1;entryY=0.5;entryDx=0;entryDy=0;" parent="1" source="fw6u8yXrWwLpEbGzCbdU-10" target="fw6u8yXrWwLpEbGzCbdU-27" edge="1">
          <mxGeometry width="50" height="50" relative="1" as="geometry">
            <mxPoint x="380" y="420" as="sourcePoint" />
            <mxPoint x="430" y="370" as="targetPoint" />
          </mxGeometry>
        </mxCell>
        <mxCell id="fw6u8yXrWwLpEbGzCbdU-30" value="P2" style="text;html=1;align=center;verticalAlign=middle;whiteSpace=wrap;rounded=0;" parent="1" vertex="1">
          <mxGeometry x="420" y="235" width="60" height="30" as="geometry" />
        </mxCell>
        <mxCell id="fw6u8yXrWwLpEbGzCbdU-31" value="Zahtjev za objavu oglasa" style="text;html=1;align=center;verticalAlign=middle;whiteSpace=wrap;rounded=0;" parent="1" vertex="1">
          <mxGeometry x="540" y="250" width="90" height="30" as="geometry" />
        </mxCell>
        <mxCell id="fw6u8yXrWwLpEbGzCbdU-32" value="Oglas" style="rounded=0;whiteSpace=wrap;html=1;" parent="1" vertex="1">
          <mxGeometry x="390" y="440" width="120" height="40" as="geometry" />
        </mxCell>
        <mxCell id="fw6u8yXrWwLpEbGzCbdU-33" value="" style="endArrow=none;html=1;rounded=0;entryX=0.25;entryY=0;entryDx=0;entryDy=0;exitX=0.25;exitY=1;exitDx=0;exitDy=0;" parent="1" source="fw6u8yXrWwLpEbGzCbdU-32" target="fw6u8yXrWwLpEbGzCbdU-32" edge="1">
          <mxGeometry width="50" height="50" relative="1" as="geometry">
            <mxPoint x="380" y="460" as="sourcePoint" />
            <mxPoint x="430" y="410" as="targetPoint" />
          </mxGeometry>
        </mxCell>
        <mxCell id="fw6u8yXrWwLpEbGzCbdU-34" value="D2" style="text;html=1;align=center;verticalAlign=middle;whiteSpace=wrap;rounded=0;" parent="1" vertex="1">
          <mxGeometry x="380" y="445" width="60" height="30" as="geometry" />
        </mxCell>
        <mxCell id="fw6u8yXrWwLpEbGzCbdU-35" value="" style="endArrow=classic;html=1;rounded=0;exitX=0.5;exitY=1;exitDx=0;exitDy=0;entryX=0.5;entryY=0;entryDx=0;entryDy=0;" parent="1" source="fw6u8yXrWwLpEbGzCbdU-27" target="fw6u8yXrWwLpEbGzCbdU-32" edge="1">
          <mxGeometry width="50" height="50" relative="1" as="geometry">
            <mxPoint x="380" y="420" as="sourcePoint" />
            <mxPoint x="430" y="370" as="targetPoint" />
          </mxGeometry>
        </mxCell>
        <mxCell id="fw6u8yXrWwLpEbGzCbdU-36" value="" style="endArrow=classic;html=1;rounded=0;exitX=0.75;exitY=1;exitDx=0;exitDy=0;entryX=0.75;entryY=0;entryDx=0;entryDy=0;" parent="1" source="fw6u8yXrWwLpEbGzCbdU-12" target="fw6u8yXrWwLpEbGzCbdU-10" edge="1">
          <mxGeometry width="50" height="50" relative="1" as="geometry">
            <mxPoint x="390" y="300" as="sourcePoint" />
            <mxPoint x="440" y="250" as="targetPoint" />
          </mxGeometry>
        </mxCell>
        <mxCell id="fw6u8yXrWwLpEbGzCbdU-37" value="" style="endArrow=classic;html=1;rounded=0;exitX=0.25;exitY=0;exitDx=0;exitDy=0;entryX=0.25;entryY=1;entryDx=0;entryDy=0;" parent="1" source="fw6u8yXrWwLpEbGzCbdU-10" target="fw6u8yXrWwLpEbGzCbdU-12" edge="1">
          <mxGeometry width="50" height="50" relative="1" as="geometry">
            <mxPoint x="390" y="300" as="sourcePoint" />
            <mxPoint x="440" y="250" as="targetPoint" />
          </mxGeometry>
        </mxCell>
        <mxCell id="fw6u8yXrWwLpEbGzCbdU-38" value="Korisnički&amp;nbsp;&lt;div&gt;račun&lt;/div&gt;" style="rounded=0;whiteSpace=wrap;html=1;" parent="1" vertex="1">
          <mxGeometry x="436" y="55" width="120" height="40" as="geometry" />
        </mxCell>
        <mxCell id="fw6u8yXrWwLpEbGzCbdU-39" value="" style="endArrow=none;html=1;rounded=0;entryX=0.25;entryY=0;entryDx=0;entryDy=0;exitX=0.25;exitY=1;exitDx=0;exitDy=0;" parent="1" source="fw6u8yXrWwLpEbGzCbdU-38" target="fw6u8yXrWwLpEbGzCbdU-38" edge="1">
          <mxGeometry width="50" height="50" relative="1" as="geometry">
            <mxPoint x="336" y="300" as="sourcePoint" />
            <mxPoint x="386" y="250" as="targetPoint" />
          </mxGeometry>
        </mxCell>
        <mxCell id="fw6u8yXrWwLpEbGzCbdU-40" value="D1" style="text;html=1;align=center;verticalAlign=middle;whiteSpace=wrap;rounded=0;" parent="1" vertex="1">
          <mxGeometry x="420" y="60" width="60" height="30" as="geometry" />
        </mxCell>
        <mxCell id="fw6u8yXrWwLpEbGzCbdU-42" value="" style="endArrow=classic;html=1;rounded=0;entryX=0;entryY=0.5;entryDx=0;entryDy=0;exitX=1;exitY=0.5;exitDx=0;exitDy=0;" parent="1" source="fw6u8yXrWwLpEbGzCbdU-38" target="fw6u8yXrWwLpEbGzCbdU-12" edge="1">
          <mxGeometry width="50" height="50" relative="1" as="geometry">
            <mxPoint x="390" y="300" as="sourcePoint" />
            <mxPoint x="440" y="250" as="targetPoint" />
          </mxGeometry>
        </mxCell>
        <mxCell id="fw6u8yXrWwLpEbGzCbdU-43" value="Urediti Oglas" style="rounded=1;whiteSpace=wrap;html=1;" parent="1" vertex="1">
          <mxGeometry x="660" y="410" width="120" height="100" as="geometry" />
        </mxCell>
        <mxCell id="fw6u8yXrWwLpEbGzCbdU-44" value="" style="endArrow=none;html=1;rounded=0;exitX=0;exitY=0.25;exitDx=0;exitDy=0;entryX=1;entryY=0.25;entryDx=0;entryDy=0;" parent="1" source="fw6u8yXrWwLpEbGzCbdU-43" target="fw6u8yXrWwLpEbGzCbdU-43" edge="1">
          <mxGeometry width="50" height="50" relative="1" as="geometry">
            <mxPoint x="390" y="440" as="sourcePoint" />
            <mxPoint x="440" y="390" as="targetPoint" />
          </mxGeometry>
        </mxCell>
        <mxCell id="fw6u8yXrWwLpEbGzCbdU-45" value="P3" style="text;html=1;align=center;verticalAlign=middle;whiteSpace=wrap;rounded=0;" parent="1" vertex="1">
          <mxGeometry x="690" y="410" width="60" height="30" as="geometry" />
        </mxCell>
        <mxCell id="fw6u8yXrWwLpEbGzCbdU-46" value="" style="endArrow=classic;html=1;rounded=0;exitX=0.5;exitY=1;exitDx=0;exitDy=0;entryX=0.5;entryY=0;entryDx=0;entryDy=0;" parent="1" source="fw6u8yXrWwLpEbGzCbdU-10" target="fw6u8yXrWwLpEbGzCbdU-45" edge="1">
          <mxGeometry width="50" height="50" relative="1" as="geometry">
            <mxPoint x="390" y="400" as="sourcePoint" />
            <mxPoint x="440" y="350" as="targetPoint" />
          </mxGeometry>
        </mxCell>
        <mxCell id="fw6u8yXrWwLpEbGzCbdU-47" value="Zahtjev za uređivanje oglasa" style="text;html=1;align=center;verticalAlign=middle;whiteSpace=wrap;rounded=0;" parent="1" vertex="1">
          <mxGeometry x="730" y="360" width="60" height="30" as="geometry" />
        </mxCell>
        <mxCell id="fw6u8yXrWwLpEbGzCbdU-48" value="" style="endArrow=classic;html=1;rounded=0;exitX=1;exitY=0.5;exitDx=0;exitDy=0;entryX=0;entryY=0.5;entryDx=0;entryDy=0;" parent="1" source="fw6u8yXrWwLpEbGzCbdU-32" target="fw6u8yXrWwLpEbGzCbdU-43" edge="1">
          <mxGeometry width="50" height="50" relative="1" as="geometry">
            <mxPoint x="390" y="400" as="sourcePoint" />
            <mxPoint x="440" y="350" as="targetPoint" />
          </mxGeometry>
        </mxCell>
        <mxCell id="fw6u8yXrWwLpEbGzCbdU-49" value="Pretraga oglasa" style="rounded=1;whiteSpace=wrap;html=1;" parent="1" vertex="1">
          <mxGeometry x="200" y="235" width="120" height="90" as="geometry" />
        </mxCell>
        <mxCell id="fw6u8yXrWwLpEbGzCbdU-50" value="" style="endArrow=none;html=1;rounded=0;exitX=0;exitY=0.25;exitDx=0;exitDy=0;entryX=1;entryY=0.25;entryDx=0;entryDy=0;" parent="1" source="fw6u8yXrWwLpEbGzCbdU-49" target="fw6u8yXrWwLpEbGzCbdU-49" edge="1">
          <mxGeometry width="50" height="50" relative="1" as="geometry">
            <mxPoint x="390" y="405" as="sourcePoint" />
            <mxPoint x="440" y="355" as="targetPoint" />
          </mxGeometry>
        </mxCell>
        <mxCell id="fw6u8yXrWwLpEbGzCbdU-51" value="P4" style="text;html=1;align=center;verticalAlign=middle;whiteSpace=wrap;rounded=0;" parent="1" vertex="1">
          <mxGeometry x="230" y="235" width="60" height="30" as="geometry" />
        </mxCell>
        <mxCell id="fw6u8yXrWwLpEbGzCbdU-52" value="" style="endArrow=classic;html=1;rounded=0;exitX=1;exitY=0.25;exitDx=0;exitDy=0;entryX=0.011;entryY=0.335;entryDx=0;entryDy=0;entryPerimeter=0;" parent="1" source="fw6u8yXrWwLpEbGzCbdU-9" target="fw6u8yXrWwLpEbGzCbdU-49" edge="1">
          <mxGeometry width="50" height="50" relative="1" as="geometry">
            <mxPoint x="390" y="400" as="sourcePoint" />
            <mxPoint x="200" y="260" as="targetPoint" />
          </mxGeometry>
        </mxCell>
        <mxCell id="fw6u8yXrWwLpEbGzCbdU-53" value="Zahtjev za pregled oglasa" style="text;html=1;align=center;verticalAlign=middle;whiteSpace=wrap;rounded=0;" parent="1" vertex="1">
          <mxGeometry x="70" y="230" width="100" height="30" as="geometry" />
        </mxCell>
        <mxCell id="fw6u8yXrWwLpEbGzCbdU-60" value="" style="endArrow=classic;html=1;rounded=0;exitX=0;exitY=0;exitDx=0;exitDy=0;entryX=0.5;entryY=1;entryDx=0;entryDy=0;" parent="1" source="fw6u8yXrWwLpEbGzCbdU-32" target="fw6u8yXrWwLpEbGzCbdU-49" edge="1">
          <mxGeometry width="50" height="50" relative="1" as="geometry">
            <mxPoint x="390" y="400" as="sourcePoint" />
            <mxPoint x="320" y="440.96000000000004" as="targetPoint" />
            <Array as="points">
              <mxPoint x="260" y="440" />
            </Array>
          </mxGeometry>
        </mxCell>
        <mxCell id="fw6u8yXrWwLpEbGzCbdU-64" value="" style="endArrow=classic;html=1;rounded=0;exitX=0;exitY=0.75;exitDx=0;exitDy=0;entryX=1;entryY=0.75;entryDx=0;entryDy=0;" parent="1" source="fw6u8yXrWwLpEbGzCbdU-49" target="fw6u8yXrWwLpEbGzCbdU-9" edge="1">
          <mxGeometry width="50" height="50" relative="1" as="geometry">
            <mxPoint x="390" y="400" as="sourcePoint" />
            <mxPoint x="440" y="350" as="targetPoint" />
          </mxGeometry>
        </mxCell>
        <mxCell id="fw6u8yXrWwLpEbGzCbdU-65" value="Oglasi" style="text;html=1;align=center;verticalAlign=middle;whiteSpace=wrap;rounded=0;" parent="1" vertex="1">
          <mxGeometry x="80" y="270" width="60" height="30" as="geometry" />
        </mxCell>
        <mxCell id="fw6u8yXrWwLpEbGzCbdU-66" value="Brisanje oglasa" style="rounded=1;whiteSpace=wrap;html=1;" parent="1" vertex="1">
          <mxGeometry x="390" y="520" width="120" height="115" as="geometry" />
        </mxCell>
        <mxCell id="fw6u8yXrWwLpEbGzCbdU-67" value="" style="endArrow=none;html=1;rounded=0;exitX=0;exitY=0.25;exitDx=0;exitDy=0;entryX=1;entryY=0.25;entryDx=0;entryDy=0;" parent="1" source="fw6u8yXrWwLpEbGzCbdU-66" target="fw6u8yXrWwLpEbGzCbdU-66" edge="1">
          <mxGeometry width="50" height="50" relative="1" as="geometry">
            <mxPoint x="910" y="465" as="sourcePoint" />
            <mxPoint x="960" y="415" as="targetPoint" />
          </mxGeometry>
        </mxCell>
        <mxCell id="fw6u8yXrWwLpEbGzCbdU-68" value="P5" style="text;html=1;align=center;verticalAlign=middle;whiteSpace=wrap;rounded=0;" parent="1" vertex="1">
          <mxGeometry x="420" y="520" width="60" height="30" as="geometry" />
        </mxCell>
        <mxCell id="fw6u8yXrWwLpEbGzCbdU-70" value="" style="endArrow=classic;html=1;rounded=0;exitX=0.5;exitY=0;exitDx=0;exitDy=0;entryX=0.5;entryY=1;entryDx=0;entryDy=0;" parent="1" source="fw6u8yXrWwLpEbGzCbdU-11" target="fw6u8yXrWwLpEbGzCbdU-66" edge="1">
          <mxGeometry width="50" height="50" relative="1" as="geometry">
            <mxPoint x="390" y="500" as="sourcePoint" />
            <mxPoint x="440" y="450" as="targetPoint" />
          </mxGeometry>
        </mxCell>
        <mxCell id="fw6u8yXrWwLpEbGzCbdU-71" value="Zahtjev za brisanje" style="text;html=1;align=center;verticalAlign=middle;whiteSpace=wrap;rounded=0;" parent="1" vertex="1">
          <mxGeometry x="450" y="650" width="60" height="30" as="geometry" />
        </mxCell>
        <mxCell id="fw6u8yXrWwLpEbGzCbdU-72" value="" style="endArrow=classic;html=1;rounded=0;exitX=1;exitY=0.5;exitDx=0;exitDy=0;entryX=1;entryY=0.5;entryDx=0;entryDy=0;" parent="1" source="fw6u8yXrWwLpEbGzCbdU-10" target="fw6u8yXrWwLpEbGzCbdU-66" edge="1">
          <mxGeometry width="50" height="50" relative="1" as="geometry">
            <mxPoint x="390" y="500" as="sourcePoint" />
            <mxPoint x="440" y="450" as="targetPoint" />
            <Array as="points">
              <mxPoint x="850" y="285" />
              <mxPoint x="850" y="580" />
            </Array>
          </mxGeometry>
        </mxCell>
        <mxCell id="fw6u8yXrWwLpEbGzCbdU-73" value="Zahtjev za brisanje" style="text;html=1;align=center;verticalAlign=middle;whiteSpace=wrap;rounded=0;" parent="1" vertex="1">
          <mxGeometry x="670" y="550" width="60" height="30" as="geometry" />
        </mxCell>
        <mxCell id="fw6u8yXrWwLpEbGzCbdU-74" value="" style="endArrow=classic;html=1;rounded=0;exitX=0.5;exitY=1;exitDx=0;exitDy=0;entryX=0.5;entryY=0;entryDx=0;entryDy=0;" parent="1" source="fw6u8yXrWwLpEbGzCbdU-32" target="fw6u8yXrWwLpEbGzCbdU-68" edge="1">
          <mxGeometry width="50" height="50" relative="1" as="geometry">
            <mxPoint x="390" y="500" as="sourcePoint" />
            <mxPoint x="440" y="450" as="targetPoint" />
          </mxGeometry>
        </mxCell>
        <mxCell id="fw6u8yXrWwLpEbGzCbdU-75" value="Prijava oglasa" style="rounded=1;whiteSpace=wrap;html=1;" parent="1" vertex="1">
          <mxGeometry x="-80" y="510" width="120" height="100" as="geometry" />
        </mxCell>
        <mxCell id="fw6u8yXrWwLpEbGzCbdU-76" value="" style="endArrow=none;html=1;rounded=0;exitX=0;exitY=0.25;exitDx=0;exitDy=0;entryX=1;entryY=0.25;entryDx=0;entryDy=0;" parent="1" source="fw6u8yXrWwLpEbGzCbdU-75" target="fw6u8yXrWwLpEbGzCbdU-75" edge="1">
          <mxGeometry width="50" height="50" relative="1" as="geometry">
            <mxPoint x="-40" y="560" as="sourcePoint" />
            <mxPoint x="10" y="510" as="targetPoint" />
          </mxGeometry>
        </mxCell>
        <mxCell id="fw6u8yXrWwLpEbGzCbdU-77" value="P6" style="text;html=1;align=center;verticalAlign=middle;whiteSpace=wrap;rounded=0;" parent="1" vertex="1">
          <mxGeometry x="-50" y="510" width="60" height="30" as="geometry" />
        </mxCell>
        <mxCell id="fw6u8yXrWwLpEbGzCbdU-78" value="" style="endArrow=classic;html=1;rounded=0;exitX=0.5;exitY=1;exitDx=0;exitDy=0;entryX=0.5;entryY=0;entryDx=0;entryDy=0;" parent="1" source="fw6u8yXrWwLpEbGzCbdU-9" target="fw6u8yXrWwLpEbGzCbdU-77" edge="1">
          <mxGeometry width="50" height="50" relative="1" as="geometry">
            <mxPoint x="390" y="500" as="sourcePoint" />
            <mxPoint x="440" y="450" as="targetPoint" />
          </mxGeometry>
        </mxCell>
        <mxCell id="fw6u8yXrWwLpEbGzCbdU-79" value="Prijava neprimjernog oglasa" style="text;html=1;align=center;verticalAlign=middle;whiteSpace=wrap;rounded=0;" parent="1" vertex="1">
          <mxGeometry x="-20" y="410" width="60" height="30" as="geometry" />
        </mxCell>
        <mxCell id="fw6u8yXrWwLpEbGzCbdU-80" value="Kritični&lt;br&gt;oglas" style="rounded=0;whiteSpace=wrap;html=1;" parent="1" vertex="1">
          <mxGeometry x="150" y="540" width="120" height="40" as="geometry" />
        </mxCell>
        <mxCell id="fw6u8yXrWwLpEbGzCbdU-81" value="" style="endArrow=none;html=1;rounded=0;entryX=0.25;entryY=0;entryDx=0;entryDy=0;exitX=0.25;exitY=1;exitDx=0;exitDy=0;" parent="1" source="fw6u8yXrWwLpEbGzCbdU-80" target="fw6u8yXrWwLpEbGzCbdU-80" edge="1">
          <mxGeometry width="50" height="50" relative="1" as="geometry">
            <mxPoint x="140" y="560" as="sourcePoint" />
            <mxPoint x="190" y="510" as="targetPoint" />
          </mxGeometry>
        </mxCell>
        <mxCell id="fw6u8yXrWwLpEbGzCbdU-82" value="D3" style="text;html=1;align=center;verticalAlign=middle;whiteSpace=wrap;rounded=0;" parent="1" vertex="1">
          <mxGeometry x="140" y="545" width="60" height="30" as="geometry" />
        </mxCell>
        <mxCell id="fw6u8yXrWwLpEbGzCbdU-83" value="" style="endArrow=classic;html=1;rounded=0;exitX=0;exitY=0.5;exitDx=0;exitDy=0;entryX=1;entryY=0.5;entryDx=0;entryDy=0;" parent="1" source="fw6u8yXrWwLpEbGzCbdU-80" target="fw6u8yXrWwLpEbGzCbdU-75" edge="1">
          <mxGeometry width="50" height="50" relative="1" as="geometry">
            <mxPoint x="390" y="500" as="sourcePoint" />
            <mxPoint x="440" y="450" as="targetPoint" />
          </mxGeometry>
        </mxCell>
        <mxCell id="fw6u8yXrWwLpEbGzCbdU-84" value="" style="endArrow=classic;html=1;rounded=0;exitX=0.5;exitY=1;exitDx=0;exitDy=0;entryX=0;entryY=0.5;entryDx=0;entryDy=0;" parent="1" source="fw6u8yXrWwLpEbGzCbdU-80" target="fw6u8yXrWwLpEbGzCbdU-11" edge="1">
          <mxGeometry width="50" height="50" relative="1" as="geometry">
            <mxPoint x="390" y="500" as="sourcePoint" />
            <mxPoint x="440" y="450" as="targetPoint" />
            <Array as="points">
              <mxPoint x="210" y="755" />
            </Array>
          </mxGeometry>
        </mxCell>
        <mxCell id="fw6u8yXrWwLpEbGzCbdU-85" value="Kritični&lt;br&gt;oglas" style="text;html=1;align=center;verticalAlign=middle;whiteSpace=wrap;rounded=0;" parent="1" vertex="1">
          <mxGeometry x="210" y="670" width="60" height="30" as="geometry" />
        </mxCell>
        <mxCell id="fw6u8yXrWwLpEbGzCbdU-86" value="Kritični&lt;br&gt;oglas" style="text;html=1;align=center;verticalAlign=middle;whiteSpace=wrap;rounded=0;" parent="1" vertex="1">
          <mxGeometry x="60" y="530" width="60" height="30" as="geometry" />
        </mxCell>
        <mxCell id="fw6u8yXrWwLpEbGzCbdU-87" value="Oglas" style="text;html=1;align=center;verticalAlign=middle;whiteSpace=wrap;rounded=0;" parent="1" vertex="1">
          <mxGeometry x="550" y="430" width="60" height="30" as="geometry" />
        </mxCell>
        <mxCell id="fw6u8yXrWwLpEbGzCbdU-88" value="Oglas" style="text;html=1;align=center;verticalAlign=middle;whiteSpace=wrap;rounded=0;" parent="1" vertex="1">
          <mxGeometry x="450" y="480" width="60" height="30" as="geometry" />
        </mxCell>
        <mxCell id="fw6u8yXrWwLpEbGzCbdU-89" value="Oglas" style="text;html=1;align=center;verticalAlign=middle;whiteSpace=wrap;rounded=0;" parent="1" vertex="1">
          <mxGeometry x="290" y="410" width="60" height="30" as="geometry" />
        </mxCell>
        <mxCell id="fw6u8yXrWwLpEbGzCbdU-91" value="Podatci oglasa" style="text;html=1;align=center;verticalAlign=middle;whiteSpace=wrap;rounded=0;" parent="1" vertex="1">
          <mxGeometry x="450" y="370" width="60" height="30" as="geometry" />
        </mxCell>
        <mxCell id="fw6u8yXrWwLpEbGzCbdU-92" value="Korisnički račun" style="text;html=1;align=center;verticalAlign=middle;whiteSpace=wrap;rounded=0;" parent="1" vertex="1">
          <mxGeometry x="570" y="40" width="60" height="30" as="geometry" />
        </mxCell>
      </root>
    </mxGraphModel>
  </diagram>
</mxfile>
